<svg width="51" height="51" viewBox="0 0 51 51" fill="none" xmlns="http://www.w3.org/2000/svg">
<path d="M19.4304 44.162V37.6449C19.4304 35.9934 20.7733 34.6518 22.4367 34.6414H28.5443C30.2151 34.6414 31.5696 35.9861 31.5696 37.6449V44.1431C31.5695 45.5755 32.7335 46.7396 34.1763 46.7499H38.3431C40.2892 46.755 42.1573 45.9909 43.5352 44.6265C44.9131 43.2621 45.6875 41.4094 45.6875 39.4772V20.9649C45.6874 19.4042 44.9906 17.9238 43.7848 16.9224L29.6288 5.68282C27.1543 3.71689 23.6202 3.78039 21.219 5.83394L7.3674 16.9224C6.10457 17.8942 5.3498 19.3791 5.3125 20.9649V39.4583C5.3125 43.4854 8.60069 46.7499 12.6569 46.7499H16.7286C17.4232 46.755 18.0912 46.4845 18.5841 45.9986C19.0771 45.5128 19.3543 44.8516 19.3543 44.162H19.4304Z" fill="#E6D15F"/>
</svg>
