<svg width="41" height="43" viewBox="0 0 41 43" fill="none" xmlns="http://www.w3.org/2000/svg">
<g id="Home">
<path id="Home_2" d="M14.4304 40.162V33.6449C14.4304 31.9934 15.7733 30.6518 17.4367 30.6414H23.5443C25.2151 30.6414 26.5696 31.9861 26.5696 33.6449V33.6449V40.1431C26.5695 41.5755 27.7335 42.7396 29.1762 42.7499H33.3431C35.2892 42.7549 37.1573 41.9909 38.5352 40.6265C39.9131 39.2621 40.6875 37.4094 40.6875 35.4772V16.9649C40.6874 15.4042 39.9906 13.9238 38.7848 12.9224L24.6288 1.68282C22.1543 -0.283115 18.6202 -0.219608 16.219 1.83394L2.3674 12.9224C1.10457 13.8942 0.349799 15.3791 0.3125 16.9649V35.4583C0.3125 39.4854 3.60069 42.7499 7.65687 42.7499H11.7286C12.4232 42.755 13.0912 42.4845 13.5841 41.9986C14.0771 41.5128 14.3543 40.8516 14.3543 40.162H14.4304Z" fill="#B1A564"/>
</g>
</svg>
