<svg width="50" height="50" viewBox="0 0 50 50" fill="none" xmlns="http://www.w3.org/2000/svg">
<rect width="50" height="50" rx="10" fill="#B1A564"/>
<path fill-rule="evenodd" clip-rule="evenodd" d="M36.6995 39.0617L35.2062 39.0456L34.6186 37.222L15.7396 37.5638L15.3875 39.1818H13.7892V28.6327C11.7395 28.4911 12.012 26.5421 12.012 26.5421H15.308V13.152C13.1504 13.0639 13.4315 11.0561 13.4315 11.0561L36.9267 11C36.9267 11 37.2106 12.6207 35.5072 13.16V26.494H38.3461C38.3461 26.494 38.6527 28.2642 36.6995 28.7181V39.0617ZM16.6906 35.9618L24.4722 35.8497L24.7334 28.6967L16.5657 28.7902L16.6906 35.9618ZM25.5339 26.5127L26.5673 24.4915H22.025L23.0612 26.518L25.5339 26.5127ZM24.5772 13.5312L16.7616 13.5712L16.8893 14.8688L24.651 14.8181L24.5772 13.5312ZM26.2806 13.5312L26.3629 14.8181L34.0451 14.7674L34.1899 13.4884L26.2806 13.5312ZM32.2254 19.9952L28.8186 19.9739C28.8186 19.9739 29.4801 21.1807 29.412 21.5759L27.8761 23.2873C27.9139 24.5106 28.4615 25.6709 29.4006 26.518H31.7115C32.6498 25.6697 33.2031 24.5131 33.2559 23.29L31.6689 21.5839C31.6178 21.1754 32.2254 19.9952 32.2254 19.9952ZM26.414 28.7902L26.5418 35.9618L34.3347 35.8497L34.4795 28.6967L26.414 28.7902ZM27.7597 34.9873L27.6206 29.8075L33.466 29.7727L33.0799 34.9312L27.7597 34.9873ZM17.8006 34.9873L17.6587 29.8075L23.5779 29.7727L23.0811 34.9232L17.8006 34.9873Z" fill="#2D1D09"/>
</svg>
